<?xml version="1.0" encoding="utf-8"?>
<!-- Generator: Adobe Illustrator 24.2.0, SVG Export Plug-In . SVG Version: 6.00 Build 0)  -->
<svg version="1.1" id="emoji" xmlns="http://www.w3.org/2000/svg" xmlns:xlink="http://www.w3.org/1999/xlink" x="0px" y="0px"
	 viewBox="0 0 72 72" style="enable-background:new 0 0 72 72;" xml:space="preserve">
<style type="text/css">
	.st0{fill:none;stroke:#FFFFFF;stroke-width:2;stroke-linecap:round;stroke-linejoin:round;stroke-miterlimit:10;}
</style>
<g id="line">
	<path class="st0" d="M19.1,28c-0.6-1.8-1.2-3.7-1.2-5.6c-0.1-1.9,0.4-4-1.3-5.1S11.1,15.8,9,17c-2.1,1.3-2.5,4.2-1.2,6
		s4.1,2.4,5.6,4.3s1.6,5.2,2.7,7.1s3.2,2.4,5,3.2s3.1,2,3,3c-0.2,0.9-1.9,1.6-2.5,3.2c-0.6,1.7,0,4.3-1.1,6.4c-1.2,2.1-4,3.6-3,4.3
		c1.1,0.7,6.1,0.7,8.5,0.3c2.3-0.4,1.9-1.2,2.2-3.2s1.3-5.3,2.3-8.5"/>
	<path class="st0" d="M19.4,40.8c-1.5,1-3,2.1-3.6,3.6c-0.6,1.5-0.2,3.6-1.1,5.4s-3,3.3-3.3,4.1c-0.3,0.7,1.3,0.7,2.8,0.7"/>
	<path class="st0" d="M54.1,46.7c0.6,1.2,1.1,2.5,1.2,3.9c0.1,1.4-0.2,3,0.8,3.8c1,0.8,3.4,0.8,4.8,0.6s1.9-0.7,1.5-2.4
		c-0.4-1.7-1.6-4.6-2.8-7.4"/>
	<path class="st0" d="M53,54.5c-1.2,0-2.5,0.1-2.7-0.4c-0.3-0.4,0.5-1.3,0.8-2.1c0.3-0.8,0.2-1.5,0.1-2.2"/>
	<path class="st0" d="M32.6,45.3c3.7,1.1,7.4,2.2,10.5,2.5c3.1,0.3,5.8-0.2,8.4-0.8"/>
	<path class="st0" d="M59.8,42.1c2.7-2.4,2.6-8.3,1-12.8s-4.8-7.5-9.5-9.2c-4.7-1.7-10.9-2.1-15.9-0.8c-5,1.3-8.8,4.2-10.7,6
		c-1.9,1.8-2,2.5-1.5,4.7c0.5,2.2,1.5,5.9,5.6,8.2s10.6,3.2,16.7,4.2S57.1,44.5,59.8,42.1L59.8,42.1z"/>
	<path class="st0" d="M64.2,41.1l3.3,1.8l-4.8,1"/>
	<path class="st0" d="M43.3,41.7L45,30l8.7-1l4.5-3.7"/>
	<path class="st0" d="M44.8,29.7l-9.7-6"/>
	<path class="st0" d="M35,23.5l-1.2-3.3"/>
	<path class="st0" d="M35,23.9L28,36.8"/>
	<path class="st0" d="M54,29.6l4.4,13.1"/>
</g>
</svg>
